<?xml version="1.0" encoding="UTF-8" standalone="no"?>
<!-- Created with Inkscape (http://www.inkscape.org/) -->

<svg
   xmlns:dc="http://purl.org/dc/elements/1.1/"
   xmlns:cc="http://creativecommons.org/ns#"
   xmlns:rdf="http://www.w3.org/1999/02/22-rdf-syntax-ns#"
   xmlns:svg="http://www.w3.org/2000/svg"
   xmlns="http://www.w3.org/2000/svg"
   xmlns:sodipodi="http://sodipodi.sourceforge.net/DTD/sodipodi-0.dtd"
   xmlns:inkscape="http://www.inkscape.org/namespaces/inkscape"
   width="104.39744mm"
   height="113.65785mm"
   viewBox="0 0 104.39744 113.65785"
   version="1.1"
   id="svg8"
   inkscape:version="0.92.5 (2060ec1f9f, 2020-04-08)"
   sodipodi:docname="pyri_logo_web.svg">
  <defs
     id="defs2">
    <inkscape:path-effect
       end_linecap_type="round"
       miter_limit="4"
       linejoin_type="extrp_arc"
       start_linecap_type="butt"
       interpolator_beta="0.2"
       interpolator_type="CubicBezierFit"
       sort_points="true"
       offset_points="0.14375883,0.35774382 | 0.97090427,0.30276652 | 1.731028,0.12577346"
       is_visible="true"
       id="path-effect878"
       effect="powerstroke" />
    <inkscape:path-effect
       only_selected="false"
       apply_with_weight="true"
       apply_no_weight="true"
       helper_size="0"
       steps="2"
       weight="33.333333"
       is_visible="true"
       id="path-effect876"
       effect="bspline" />
    <inkscape:path-effect
       effect="powerstroke"
       id="path-effect861"
       is_visible="true"
       offset_points="0.14375883,0.35774382 | 0.97090427,0.30276652 | 1.731028,0.12577346"
       sort_points="true"
       interpolator_type="CubicBezierFit"
       interpolator_beta="0.2"
       start_linecap_type="butt"
       linejoin_type="extrp_arc"
       miter_limit="4"
       end_linecap_type="round" />
    <inkscape:path-effect
       effect="bspline"
       id="path-effect859"
       is_visible="true"
       weight="33.333333"
       steps="2"
       helper_size="0"
       apply_no_weight="true"
       apply_with_weight="true"
       only_selected="false" />
    <inkscape:path-effect
       effect="bspline"
       id="path-effect855"
       is_visible="true"
       weight="33.333333"
       steps="2"
       helper_size="0"
       apply_no_weight="true"
       apply_with_weight="true"
       only_selected="false" />
    <inkscape:path-effect
       effect="bspline"
       id="path-effect825"
       is_visible="true"
       weight="33.333333"
       steps="2"
       helper_size="0"
       apply_no_weight="true"
       apply_with_weight="true"
       only_selected="false" />
    <inkscape:path-effect
       effect="bspline"
       id="path-effect821"
       is_visible="true"
       weight="33.333333"
       steps="2"
       helper_size="0"
       apply_no_weight="true"
       apply_with_weight="true"
       only_selected="false" />
    <inkscape:path-effect
       effect="bspline"
       id="path-effect817"
       is_visible="true"
       weight="33.333333"
       steps="2"
       helper_size="0"
       apply_no_weight="true"
       apply_with_weight="true"
       only_selected="false" />
    <inkscape:path-effect
       effect="bspline"
       id="path-effect821-3"
       is_visible="true"
       weight="33.333333"
       steps="2"
       helper_size="0"
       apply_no_weight="true"
       apply_with_weight="true"
       only_selected="false" />
    <inkscape:path-effect
       effect="bspline"
       id="path-effect817-6"
       is_visible="true"
       weight="33.333333"
       steps="2"
       helper_size="0"
       apply_no_weight="true"
       apply_with_weight="true"
       only_selected="false" />
  </defs>
  <sodipodi:namedview
     id="base"
     pagecolor="#ffffff"
     bordercolor="#666666"
     borderopacity="1.0"
     inkscape:pageopacity="0.0"
     inkscape:pageshadow="2"
     inkscape:zoom="1.4"
     inkscape:cx="138.66083"
     inkscape:cy="182.23266"
     inkscape:document-units="mm"
     inkscape:current-layer="layer1"
     showgrid="false"
     inkscape:window-width="1920"
     inkscape:window-height="1017"
     inkscape:window-x="-8"
     inkscape:window-y="-8"
     inkscape:window-maximized="1"
     fit-margin-top="0"
     fit-margin-left="0"
     fit-margin-right="0"
     fit-margin-bottom="0">
    <inkscape:grid
       type="xygrid"
       id="grid827"
       originx="-15.364524"
       originy="-78.297553" />
  </sodipodi:namedview>
  <metadata
     id="metadata5">
    <rdf:RDF>
      <cc:Work
         rdf:about="">
        <dc:format>image/svg+xml</dc:format>
        <dc:type
           rdf:resource="http://purl.org/dc/dcmitype/StillImage" />
        <dc:title></dc:title>
      </cc:Work>
    </rdf:RDF>
  </metadata>
  <g
     inkscape:label="Layer 1"
     inkscape:groupmode="layer"
     id="layer1"
     transform="translate(-15.364524,-105.04459)">
    <g
       id="g953"
       transform="translate(-35.529762,-10.96131)">
      <path
         transform="translate(0.38682015,0.99681704)"
         sodipodi:nodetypes="ccccccccccccc"
         inkscape:original-d="m 96.761905,146.84896 c -5.102416,1.38564 -10.205093,2.77156 -15.308038,4.15773 -5.102725,0.88174 -10.205093,1.76363 -15.308035,2.64584 -1.428038,2.4761 -2.856029,4.95193 -4.284658,7.42867 -0.373272,3.42294 -0.746672,6.84489 -1.120496,10.26858 1.455743,1.2194 2.910745,2.43867 4.36572,3.6584 4.179623,1.72449 8.358973,3.44923 12.538065,5.17425 1.915313,-0.39446 3.830358,-0.78865 5.745143,-1.18258 4.363206,-6.65399 8.726143,-13.3077 13.088816,-19.96116 0.31523,-0.5987 0.630224,-1.19719 0.944941,-1.79539 0.727283,-1.27011 1.455075,-2.54131 2.182212,-3.81156 0.357167,-1.60528 0.714075,-3.21032 1.070715,-4.81508 -1.304532,-0.5895 -2.609326,-1.17873 -3.914385,-1.7677 z"
         inkscape:path-effect="#path-effect821"
         inkscape:connector-curvature="0"
         id="path819"
         d="m 94.86318,147.83652 c -3.203641,0.39826 -8.30632,1.78417 -13.409161,2.91815 -5.102841,1.13397 -10.205208,2.01586 -13.470758,3.69489 -3.26555,1.67902 -4.693542,4.15485 -5.594567,7.1047 -0.901025,2.94985 -1.274424,6.3718 -0.733469,8.69351 0.540956,2.3217 1.995959,3.54097 4.813312,5.01309 2.817353,1.47213 6.996701,3.19687 10.043991,3.86209 3.04729,0.66522 4.962334,0.27103 8.101278,-3.25305 3.138943,-3.52408 7.501876,-10.17779 9.840812,-13.80388 2.338936,-3.62608 2.65393,-4.22457 3.174936,-5.15873 0.521006,-0.93415 1.248799,-2.20535 1.790896,-3.64311 0.542096,-1.43776 0.899,-3.0428 0.425084,-4.13975 -0.473921,-1.09695 -1.778713,-1.68618 -4.982354,-1.28791 z"
         style="fill:#932faf;fill-opacity:1;stroke:#000000;stroke-width:0.26458332px;stroke-linecap:butt;stroke-linejoin:miter;stroke-opacity:1" />
      <path
         transform="translate(0.38682015,0.99681704)"
         sodipodi:nodetypes="ccccccccccccc"
         inkscape:original-d="m 99.596727,154.31399 c 0.441293,-2.08704 0.882333,-4.17385 1.323113,-6.26044 -3.590639,-4.11864 -7.181346,-8.23678 -10.772519,-12.3549 -2.110144,-2.20516 -4.220467,-4.40998 -6.331103,-6.61458 -5.700886,-3.24457 -11.402012,-6.48885 -17.103423,-9.73289 -2.078604,-0.12625 -4.157473,-0.25224 -6.236605,-0.37797 -1.826812,1.19679 -3.653092,2.39332 -5.480656,3.59078 1.449502,3.11874 2.897944,6.23604 4.346728,9.35491 0.425613,2.99232 0.850862,5.98422 1.275922,8.97691 0.960908,3.11817 1.921495,6.23642 2.881814,9.35493 1.732619,1.19664 3.490534,2.4112 5.197174,3.59078 8.348578,0.34111 16.946196,0.69269 25.418899,1.03943 1.827102,-0.18925 3.654068,-0.37824 5.480656,-0.56696 z"
         inkscape:path-effect="#path-effect817"
         inkscape:connector-curvature="0"
         id="path815"
         d="m 98.903992,153.36493 c 1.133828,-1.13802 1.574868,-3.22483 -1.03e-4,-6.3273 -1.57497,-3.10247 -5.165674,-7.22062 -8.016326,-10.38225 -2.850653,-3.16163 -4.960979,-5.36645 -8.866695,-8.09101 -3.905716,-2.72455 -9.606838,-5.96884 -13.496766,-7.654 -3.889928,-1.68516 -5.968797,-1.81116 -7.92174,-1.27573 -1.952943,0.53542 -3.779223,1.73195 -3.968435,3.8901 -0.189212,2.15814 1.259231,5.27544 2.196441,8.33098 0.93721,3.05554 1.36246,6.04744 2.055434,9.1029 0.692974,3.05546 1.65356,6.17371 3.000084,8.33138 1.346523,2.15768 3.104438,3.37224 8.132145,4.13258 5.027708,0.76033 13.625326,1.1119 18.775246,1.19063 5.149921,0.0787 6.976886,-0.11027 8.110715,-1.24828 z"
         style="fill:#932faf;fill-opacity:1;stroke:#000000;stroke-width:0.26458332px;stroke-linecap:butt;stroke-linejoin:miter;stroke-opacity:1" />
      <path
         transform="matrix(-1,0,0,1,205.98818,0.99681704)"
         sodipodi:nodetypes="ccccccccccccc"
         inkscape:original-d="m 96.761905,146.84896 c -5.102416,1.38564 -10.205093,2.77156 -15.308038,4.15773 -5.102725,0.88174 -10.205093,1.76363 -15.308035,2.64584 -1.428038,2.4761 -2.856029,4.95193 -4.284658,7.42867 -0.373272,3.42294 -0.746672,6.84489 -1.120496,10.26858 1.455743,1.2194 2.910745,2.43867 4.36572,3.6584 4.179623,1.72449 8.358973,3.44923 12.538065,5.17425 1.915313,-0.39446 3.830358,-0.78865 5.745143,-1.18258 4.363206,-6.65399 8.726143,-13.3077 13.088816,-19.96116 0.31523,-0.5987 0.630224,-1.19719 0.944941,-1.79539 0.727283,-1.27011 1.455075,-2.54131 2.182212,-3.81156 0.357167,-1.60528 0.714075,-3.21032 1.070715,-4.81508 -1.304532,-0.5895 -2.609326,-1.17873 -3.914385,-1.7677 z"
         inkscape:path-effect="#path-effect821-3"
         inkscape:connector-curvature="0"
         id="path819-6"
         d="m 94.86318,147.83652 c -3.203641,0.39826 -8.30632,1.78417 -13.409161,2.91815 -5.102841,1.13397 -10.205208,2.01586 -13.470758,3.69489 -3.26555,1.67902 -4.693542,4.15485 -5.594567,7.1047 -0.901025,2.94985 -1.274424,6.3718 -0.733469,8.69351 0.540956,2.3217 1.995959,3.54097 4.813312,5.01309 2.817353,1.47213 6.996701,3.19687 10.043991,3.86209 3.04729,0.66522 4.962334,0.27103 8.101278,-3.25305 3.138943,-3.52408 7.501876,-10.17779 9.840812,-13.80388 2.338936,-3.62608 2.65393,-4.22457 3.174936,-5.15873 0.521006,-0.93415 1.248799,-2.20535 1.790896,-3.64311 0.542096,-1.43776 0.899,-3.0428 0.425084,-4.13975 -0.473921,-1.09695 -1.778713,-1.68618 -4.982354,-1.28791 z"
         style="fill:#932faf;fill-opacity:1;stroke:#000000;stroke-width:0.26458332px;stroke-linecap:butt;stroke-linejoin:miter;stroke-opacity:1" />
      <path
         transform="matrix(-1,0,0,1,205.98818,0.99681704)"
         sodipodi:nodetypes="ccccccccccccc"
         inkscape:original-d="m 99.596727,154.31399 c 0.441293,-2.08704 0.882333,-4.17385 1.323113,-6.26044 -3.590639,-4.11864 -7.181346,-8.23678 -10.772519,-12.3549 -2.110144,-2.20516 -4.220467,-4.40998 -6.331103,-6.61458 -5.700886,-3.24457 -11.402012,-6.48885 -17.103423,-9.73289 -2.078604,-0.12625 -4.157473,-0.25224 -6.236605,-0.37797 -1.826812,1.19679 -3.653092,2.39332 -5.480656,3.59078 1.449502,3.11874 2.897944,6.23604 4.346728,9.35491 0.425613,2.99232 0.850862,5.98422 1.275922,8.97691 0.960908,3.11817 1.921495,6.23642 2.881814,9.35493 1.732619,1.19664 3.490534,2.4112 5.197174,3.59078 8.348578,0.34111 16.946196,0.69269 25.418899,1.03943 1.827102,-0.18925 3.654068,-0.37824 5.480656,-0.56696 z"
         inkscape:path-effect="#path-effect817-6"
         inkscape:connector-curvature="0"
         id="path815-0"
         d="m 98.903992,153.36493 c 1.133828,-1.13802 1.574868,-3.22483 -1.03e-4,-6.3273 -1.57497,-3.10247 -5.165674,-7.22062 -8.016326,-10.38225 -2.850653,-3.16163 -4.960979,-5.36645 -8.866695,-8.09101 -3.905716,-2.72455 -9.606838,-5.96884 -13.496766,-7.654 -3.889928,-1.68516 -5.968797,-1.81116 -7.92174,-1.27573 -1.952943,0.53542 -3.779223,1.73195 -3.968435,3.8901 -0.189212,2.15814 1.259231,5.27544 2.196441,8.33098 0.93721,3.05554 1.36246,6.04744 2.055434,9.1029 0.692974,3.05546 1.65356,6.17371 3.000084,8.33138 1.346523,2.15768 3.104438,3.37224 8.132145,4.13258 5.027708,0.76033 13.625326,1.1119 18.775246,1.19063 5.149921,0.0787 6.976886,-0.11027 8.110715,-1.24828 z"
         style="fill:#932faf;fill-opacity:1;stroke:#000000;stroke-width:0.26458332px;stroke-linecap:butt;stroke-linejoin:miter;stroke-opacity:1" />
      <path
         inkscape:original-d="m 103.1875,146.1875 c -0.88168,0.44071 -1.76363,0.88168 -2.64583,1.32292 -0.44087,0.44086 -0.881684,0.88168 -1.322921,1.32291 2.64e-4,1.76468 2.64e-4,3.52752 0,5.29167 0.441304,3.96908 0.882211,7.93723 1.322921,11.90625 0.88226,0.88173 1.76415,1.76362 2.64583,2.64583 0.88221,-0.88221 1.76415,-1.76415 2.64583,-2.64583 0.44111,-3.96782 0.88221,-7.93777 1.32292,-11.90625 2.6e-4,-1.76403 2.6e-4,-3.52804 0,-5.29167 -0.44064,-0.44117 -0.88168,-0.88221 -1.32292,-1.32291 -0.88168,-0.44124 -1.76362,-0.88221 -2.64583,-1.32292 z"
         inkscape:path-effect="#path-effect855"
         inkscape:connector-curvature="0"
         id="path853"
         d="m 103.18771,146.62842 c -0.88184,-1e-4 -1.76378,0.44087 -2.42535,0.88187 -0.66156,0.44099 -1.102376,0.88181 -1.322993,1.98476 -0.220618,1.10296 -0.220618,2.8658 -1.11e-4,5.73243 0.220507,2.86663 0.661414,6.83478 1.322914,9.26027 0.6615,2.4255 1.54338,3.30739 2.42546,3.30725 0.88208,-1.3e-4 1.76402,-0.88207 2.4253,-3.30683 0.66127,-2.42477 1.10238,-6.39472 1.32285,-9.26096 0.22047,-2.86624 0.22047,-4.63025 2e-5,-5.73252 -0.22046,-1.10226 -0.6615,-1.5433 -1.3229,-1.98425 -0.66141,-0.44094 -1.54335,-0.88191 -2.42519,-0.88202 z"
         style="fill:#932faf;fill-opacity:1;stroke:#000000;stroke-width:0.26458332px;stroke-linecap:butt;stroke-linejoin:miter;stroke-opacity:1" />
      <path
         sodipodi:nodetypes="ccc"
         inkscape:original-d="m 100.91964,147.46317 c -0.80293,-0.77197 -1.60609,-1.54363 -2.409596,-2.31511 -0.708479,-0.898 -1.417147,-1.79565 -2.126115,-2.69308"
         inkscape:path-effect="#path-effect859;#path-effect861"
         inkscape:connector-curvature="0"
         id="path857"
         d="m 101.16749,147.2052 c -0.11546,-0.11094 -0.22894,-0.22373 -0.34588,-0.33264 -0.67369,-0.62745 -1.325242,-1.2673 -1.974608,-1.91893 -0.02315,-0.0232 -0.04597,-0.0462 -0.06847,-0.069 -1.538828,-1.55519 -1.6975,-1.8052 -1.710909,-1.7915 -0.01214,0.0124 0.15404,0.21995 -0.584974,-0.71613 a 0.12577346,0.12577346 90 0 0 -0.197434,0.15586 c 0.739679,0.93693 0.581898,0.72346 0.564007,0.73442 0.03471,-0.0213 0.04765,0.28431 1.486819,2.01809 0.02093,0.0252 0.04218,0.0507 0.06374,0.0765 0.605049,0.72255 1.271664,1.37433 1.925378,2.0259 0.11367,0.1133 0.23116,0.22243 0.34663,0.33336 z"
         style="fill:#932faf;fill-opacity:1;fill-rule:nonzero;stroke:none;stroke-width:0.26499999;stroke-linecap:butt;stroke-linejoin:miter;stroke-miterlimit:4;stroke-dasharray:none;stroke-opacity:1" />
      <path
         transform="matrix(-1,0,0,1,206.54432,3.8917563e-8)"
         style="fill:#932faf;fill-opacity:1;fill-rule:nonzero;stroke:none;stroke-width:0.26499999;stroke-linecap:butt;stroke-linejoin:miter;stroke-miterlimit:4;stroke-dasharray:none;stroke-opacity:1"
         d="m 101.16749,147.2052 c -0.11546,-0.11094 -0.22894,-0.22373 -0.34588,-0.33264 -0.67369,-0.62745 -1.325242,-1.2673 -1.974608,-1.91893 -0.02315,-0.0232 -0.04597,-0.0462 -0.06847,-0.069 -1.538828,-1.55519 -1.6975,-1.8052 -1.710909,-1.7915 -0.01214,0.0124 0.15404,0.21995 -0.584974,-0.71613 a 0.12577346,0.12577346 90 0 0 -0.197434,0.15586 c 0.739679,0.93693 0.581898,0.72346 0.564007,0.73442 0.03471,-0.0213 0.04765,0.28431 1.486819,2.01809 0.02093,0.0252 0.04218,0.0507 0.06374,0.0765 0.605049,0.72255 1.271664,1.37433 1.925378,2.0259 0.11367,0.1133 0.23116,0.22243 0.34663,0.33336 z"
         id="path874"
         inkscape:connector-curvature="0"
         inkscape:path-effect="#path-effect876;#path-effect878"
         inkscape:original-d="m 100.91964,147.46317 c -0.80293,-0.77197 -1.60609,-1.54363 -2.409596,-2.31511 -0.708479,-0.898 -1.417147,-1.79565 -2.126115,-2.69308"
         sodipodi:nodetypes="ccc" />
      <g
         id="g924">
        <ellipse
           style="fill:#ffffff;fill-opacity:1;stroke:none;stroke-width:0.17219195;stroke-miterlimit:4;stroke-dasharray:none;stroke-opacity:1"
           id="path880"
           ry="2.4977393"
           rx="2.6313741"
           cy="136.24318"
           cx="79.718819" />
        <ellipse
           cx="79.695206"
           cy="136.19998"
           id="ellipse882"
           style="fill:#932faf;fill-opacity:1;stroke:none;stroke-width:0.11595717;stroke-miterlimit:4;stroke-dasharray:none;stroke-opacity:1"
           rx="1.8295654"
           ry="1.6291133" />
      </g>
      <g
         transform="translate(0.47247024,0.09449405)"
         id="g920">
        <ellipse
           style="fill:#ffffff;fill-opacity:1;stroke:none;stroke-width:0.17219195;stroke-miterlimit:4;stroke-dasharray:none;stroke-opacity:1"
           id="path880-0"
           ry="2.4977393"
           rx="2.6313741"
           cy="137.0392"
           cx="124.1467" />
        <ellipse
           cx="124.12308"
           cy="136.99599"
           id="ellipse882-7"
           style="fill:#932faf;fill-opacity:1;stroke:none;stroke-width:0.11595717;stroke-miterlimit:4;stroke-dasharray:none;stroke-opacity:1"
           rx="1.8295655"
           ry="1.6291133" />
      </g>
      <g
         id="g932">
        <ellipse
           style="fill:#ffffff;fill-opacity:1;stroke:none;stroke-width:0.17219195;stroke-miterlimit:4;stroke-dasharray:none;stroke-opacity:1"
           id="path880-1"
           ry="2.4977393"
           rx="2.6313741"
           cy="164.16704"
           cx="129.22482" />
        <ellipse
           cx="129.2012"
           cy="164.12384"
           id="ellipse882-3"
           style="fill:#932faf;fill-opacity:1;stroke:none;stroke-width:0.11595717;stroke-miterlimit:4;stroke-dasharray:none;stroke-opacity:1"
           rx="1.8295655"
           ry="1.6291133" />
      </g>
      <g
         id="g928">
        <ellipse
           style="fill:#ffffff;fill-opacity:1;stroke:none;stroke-width:0.17219195;stroke-miterlimit:4;stroke-dasharray:none;stroke-opacity:1"
           id="path880-3"
           ry="2.4977393"
           rx="2.6313741"
           cy="164.14137"
           cx="76.540176" />
        <ellipse
           cx="76.516563"
           cy="164.09818"
           id="ellipse882-2"
           style="fill:#932faf;fill-opacity:1;stroke:none;stroke-width:0.11595717;stroke-miterlimit:4;stroke-dasharray:none;stroke-opacity:1"
           rx="1.8295655"
           ry="1.6291133" />
      </g>
    </g>
    <text
       xml:space="preserve"
       style="font-style:normal;font-weight:normal;font-size:10.58333302px;line-height:1.25;font-family:sans-serif;letter-spacing:0px;word-spacing:0px;fill:#932faf;fill-opacity:1;stroke:none;stroke-width:0.26458332"
       x="27.214285"
       y="203.82887"
       id="text957"><tspan
         sodipodi:role="line"
         id="tspan955"
         x="27.214285"
         y="203.82887"
         style="font-style:normal;font-variant:normal;font-weight:normal;font-stretch:normal;font-size:42.33333206px;font-family:Ebrima;-inkscape-font-specification:Ebrima;fill:#932faf;fill-opacity:1;stroke-width:0.26458332">PyRI</tspan></text>
    <rect
       style="fill:none;fill-opacity:1;stroke:none;stroke-width:1.39612687;stroke-miterlimit:4;stroke-dasharray:none;stroke-opacity:1"
       id="rect4548"
       width="103.00131"
       height="112.26173"
       x="16.062588"
       y="105.74265" />
  </g>
</svg>
